<svg width="17" height="17" viewBox="0 0 17 17" fill="none" xmlns="http://www.w3.org/2000/svg">
<path d="M4.54602 11.2557C4.64143 11.601 4.99868 11.8036 5.34397 11.7082C5.68927 11.6128 5.89186 11.2555 5.79645 10.9102L4.54602 11.2557ZM0.82221 2.14011C0.477024 2.04434 0.119548 2.24653 0.0237751 2.59171C-0.071998 2.93691 0.130195 3.29438 0.475389 3.39016L0.82221 2.14011ZM15.5143 11.6541C15.861 11.5641 16.0691 11.21 15.979 10.8632C15.8889 10.5165 15.5348 10.3085 15.1881 10.3986L15.5143 11.6541ZM6.87379 13.2397C7.14155 14.209 6.55378 15.2315 5.5126 15.5021L5.8389 16.7577C7.54872 16.3133 8.59354 14.5933 8.12419 12.8943L6.87379 13.2397ZM5.5126 15.5021C4.46464 15.7744 3.41304 15.1662 3.14303 14.1888L1.8926 14.5343C2.35972 16.2251 4.13583 17.2003 5.8389 16.7577L5.5126 15.5021ZM3.14303 14.1888C2.87527 13.2196 3.46301 12.1971 4.5042 11.9265L4.1779 10.6709C2.46806 11.1153 1.42322 12.8353 1.8926 14.5343L3.14303 14.1888ZM4.5042 11.9265C5.55215 11.6541 6.60375 12.2624 6.87379 13.2397L8.12419 12.8943C7.65709 11.2035 5.88097 10.2284 4.1779 10.6709L4.5042 11.9265ZM5.79645 10.9102L3.93508 4.17261L2.68465 4.51807L4.54602 11.2557L5.79645 10.9102ZM2.29565 2.5489L0.82221 2.14011L0.475389 3.39016L1.94883 3.79895L2.29565 2.5489ZM3.93508 4.17261C3.71616 3.38021 3.08862 2.76891 2.29565 2.5489L1.94883 3.79895C2.3169 3.90107 2.59101 4.17912 2.68465 4.51807L3.93508 4.17261ZM7.6621 13.6948L15.5143 11.6541L15.1881 10.3986L7.3358 12.4392L7.6621 13.6948Z" fill="#1C274C"/>
<path d="M14.6288 3.44709C14.2093 1.92879 13.9996 1.16964 13.383 0.82435C12.7664 0.47906 11.9836 0.682481 10.4183 1.0893L8.75785 1.52081C7.19239 1.92764 6.4097 2.13105 6.05368 2.72912C5.69768 3.32717 5.9074 4.08632 6.32686 5.60462L6.77173 7.21506C7.19118 8.7333 7.40091 9.49246 8.01754 9.83779C8.63418 10.183 9.41695 9.97963 10.9823 9.5728L12.6427 9.14133C14.2082 8.73451 14.9909 8.5311 15.3469 7.93297C15.5425 7.6045 15.5673 7.22743 15.4805 6.70255" stroke="#1C274C" stroke-width="1.29727" stroke-linecap="round"/>
</svg>
