<svg width="15" height="15" viewBox="0 0 15 15" fill="none" xmlns="http://www.w3.org/2000/svg">
<path d="M12.1452 4.43018C12.0032 4.29017 11.7562 4.28894 11.6142 4.43018L7.49998 8.54513L5.13999 6.1844C4.99798 6.04366 4.75175 6.04366 4.60975 6.1844C4.53949 6.25539 4.5 6.3499 4.5 6.44965C4.5 6.54991 4.53949 6.64439 4.60975 6.7154L7.23473 9.34038C7.30571 9.41064 7.40022 9.45013 7.49998 9.45013C7.59973 9.45013 7.69398 9.41064 7.76523 9.34038L12.1452 4.96118C12.2909 4.81466 12.2909 4.57666 12.1452 4.43018Z" fill="black"/>
<path d="M12.5225 5.6444L11.9163 6.25063C12.0335 6.66014 12.1123 7.07662 12.1123 7.49987C12.1123 10.0429 10.0433 12.1118 7.50029 12.1118C4.95731 12.1118 2.88806 10.0429 2.88806 7.4999C2.88806 4.95692 4.95704 2.88793 7.50002 2.88793C8.71876 2.88793 9.88152 3.37941 10.745 4.23918L11.0838 3.90019C11.1493 3.83495 11.2233 3.78245 11.3008 3.73619C10.295 2.72044 8.93002 2.13721 7.50005 2.13721C4.54332 2.13721 2.13733 4.54319 2.13733 7.49993C2.13733 10.4567 4.54329 12.8626 7.50002 12.8626C10.4568 12.8626 12.8627 10.4566 12.8627 7.49987C12.8627 6.86191 12.7437 6.24041 12.5225 5.6444Z" fill="black"/>
<path d="M14.853 7.0542L14.1977 6.16771L14.464 5.09797C14.5435 4.77823 14.4052 4.44398 14.1227 4.27424L13.178 3.70597L13.0145 2.61572C12.9657 2.28997 12.7097 2.03398 12.384 1.98523L11.2937 1.82172L10.7255 0.876995C10.5877 0.647749 10.3415 0.513512 10.083 0.513512C10.023 0.513512 9.96199 0.520748 9.90173 0.535748L8.83199 0.801996L7.94553 0.146747C7.81329 0.048984 7.65678 0 7.50005 0C7.34331 0 7.18681 0.0490133 7.0543 0.146747L6.16781 0.801996L5.09807 0.535748C5.03781 0.520748 4.97708 0.513512 4.91681 0.513512C4.65807 0.513512 4.41206 0.648013 4.27407 0.876995L3.70584 1.82172L2.61585 1.98523C2.29011 2.03398 2.03435 2.28997 1.98536 2.61572L1.82183 3.70597L0.877098 4.27421C0.594854 4.44395 0.456339 4.7782 0.53585 5.09794L0.802098 6.16768L0.14682 7.0542C-0.0489401 7.31918 -0.0489401 7.68094 0.14682 7.94593L0.802069 8.83241L0.535821 9.90215C0.45631 10.2219 0.594561 10.5561 0.877069 10.7259L1.8218 11.2941L1.9853 12.3844C2.03405 12.7101 2.29005 12.9661 2.6158 13.0149L3.70578 13.1784L4.27402 14.1231C4.41177 14.3523 4.65801 14.4866 4.91676 14.4866C4.97675 14.4866 5.03752 14.4793 5.09801 14.4643L6.16775 14.1981L7.05424 14.8533C7.18675 14.9508 7.34325 14.9999 7.49999 14.9999C7.65672 14.9999 7.81323 14.9509 7.94574 14.8531L8.83222 14.1979L9.90196 14.4641C9.96222 14.4791 10.023 14.4863 10.0832 14.4863C10.342 14.4863 10.588 14.3518 10.7257 14.1229L11.294 13.1781L12.3842 13.0146C12.71 12.9659 12.966 12.7101 13.0147 12.3841L13.1782 11.2939L14.1229 10.7257C14.4052 10.5559 14.5437 10.2217 14.4642 9.90192L14.1979 8.83218L14.8532 7.94569C15.049 7.68094 15.049 7.31895 14.853 7.0542ZM13.3847 8.67043L13.7362 10.0829L12.489 10.8332L12.273 12.2727L10.8335 12.4884L10.0832 13.7359L8.67074 13.3844L7.49999 14.2499L6.3295 13.3846L4.91702 13.7361L4.16676 12.4886L2.72727 12.2729L2.51153 10.8334L1.26428 10.0831L1.61578 8.67067L0.750038 7.49991L1.61529 6.32943L1.26378 4.91695L2.51103 4.16669L2.72677 2.7272L4.16626 2.51146L4.91652 1.26397L6.329 1.61548L7.49999 0.749994L8.67048 1.61524L10.083 1.26374L10.8332 2.51122L12.2727 2.72696L12.4887 4.16645L13.736 4.91671L13.3845 6.32919L14.25 7.49994L13.3847 8.67043Z" fill="black"/>
</svg>
