<svg width="14" height="17" viewBox="0 0 14 17" fill="none" xmlns="http://www.w3.org/2000/svg">
<path d="M2.92499 4.81071C4.25047 4.81071 5.32498 3.85132 5.32498 2.66785C5.32498 1.48438 4.25047 0.524994 2.92499 0.524994C1.59951 0.524994 0.524994 1.48438 0.524994 2.66785C0.524994 3.85132 1.59951 4.81071 2.92499 4.81071Z" stroke="white" stroke-width="1.05" stroke-miterlimit="10"/>
<path d="M10.125 10.1679C11.4505 10.1679 12.525 9.2085 12.525 8.02503C12.525 6.84156 11.4505 5.88217 10.125 5.88217C8.79953 5.88217 7.72502 6.84156 7.72502 8.02503C7.72502 9.2085 8.79953 10.1679 10.125 10.1679Z" stroke="white" stroke-width="1.05" stroke-miterlimit="10"/>
<path d="M4.12501 15.525C5.45049 15.525 6.52501 14.5656 6.52501 13.3821C6.52501 12.1987 5.45049 11.2393 4.12501 11.2393C2.79953 11.2393 1.72502 12.1987 1.72502 13.3821C1.72502 14.5656 2.79953 15.525 4.12501 15.525Z" stroke="white" stroke-width="1.05" stroke-miterlimit="10"/>
</svg>
