<svg width="15" height="15" viewBox="0 0 15 15" fill="none" xmlns="http://www.w3.org/2000/svg">
<path d="M10.45 2.35L12.675 4.575C13.175 5.05 13.175 5.85 12.675 6.325L6.875 12.1V4.15L8.675 2.35C9.15 1.85 9.975 1.85 10.45 2.35ZM15 10.625V13.75C15 14.45 14.45 15 13.75 15H5.95L11.575 9.375H13.75C14.45 9.375 15 9.95 15 10.625ZM0 12.2V1.25C0 0.55 0.55 0 1.25 0H4.375C5.075 0 5.625 0.55 5.625 1.25V12.2C5.625 13.75 4.375 15 2.825 15C1.275 15 0 13.75 0 12.2ZM2.8 13.45C3.5 13.45 4.05 12.9 4.05 12.2C4.05 11.5 3.5 10.95 2.8 10.95C2.1 10.95 1.55 11.5 1.55 12.2C1.55 12.9 2.125 13.45 2.8 13.45Z" fill="black"/>
</svg>
