<svg width="11" height="17" viewBox="0 0 11 17" fill="none" xmlns="http://www.w3.org/2000/svg">
<path d="M3.4809 9.19023C3.41449 8.58099 3.19103 8.18994 2.98339 7.79994C2.71697 7.2927 2.50159 6.76025 2.34042 6.21044C1.78494 4.36586 1.74804 2.52866 2.36361 0.6904C2.46901 0.374186 2.44582 0.374186 2.84636 0C2.99709 0.111729 3.20263 0.200269 3.30909 0.356268C3.53143 0.678998 3.72071 1.0233 3.87405 1.38396C4.23499 2.25549 4.88231 2.97791 5.70915 3.43197C6.36371 3.80722 7.01195 4.1951 7.68443 4.5324C8.86918 5.1332 9.65655 6.0966 10.2268 7.25289C10.4495 7.71337 10.6339 8.19142 10.7781 8.68218C11.2197 10.1357 10.9509 11.5429 10.4218 12.9163C10.2268 13.4212 9.98752 13.9134 9.75247 14.3983C9.51425 14.8931 9.11093 15.2893 8.61199 15.5187C7.51578 16.0394 6.37636 16.421 5.14313 16.4494C3.55046 16.4853 2.2972 15.817 1.28216 14.6249C0.506378 13.7131 0.178569 12.6222 0.0520837 11.4712C-0.105104 10.1428 0.0950218 8.79647 0.631809 7.57121C0.739209 7.32307 0.870904 7.08616 1.02497 6.86395C1.26213 6.52665 1.56569 6.41914 1.88085 6.52033C2.25188 6.64049 2.3615 6.90611 2.38047 7.2824C2.42685 8.26688 2.51223 8.3881 3.4809 9.19023ZM1.48875 8.85399C1.40864 9.00999 1.3201 9.10907 1.30851 9.21658C1.24737 9.81528 1.1504 10.4182 1.16832 11.0158C1.19256 11.8285 1.28743 12.6486 1.70799 13.3716C2.50801 14.7482 3.64427 15.5925 5.31072 15.4797C6.12372 15.4199 6.92155 15.228 7.67284 14.9116C8.10227 14.7527 8.45879 14.4423 8.67523 14.0388C8.97985 13.4517 9.29396 12.8667 9.54482 12.2564C9.87356 11.4715 9.96411 10.6071 9.80517 9.77101C9.67675 9.18403 9.51522 8.60478 9.32137 8.03605C9.07156 7.23708 8.58353 6.59938 7.96375 6.04285C7.3756 5.51582 6.6873 5.14691 5.99585 4.77799C5.0704 4.27943 4.12808 3.79457 3.44717 2.9429C3.39025 2.87122 3.26376 2.85436 3.08984 2.77741C3.08247 3.28652 3.02871 3.7113 3.08141 4.12238C3.24479 5.41253 3.54519 6.66263 4.20081 7.81154C4.45273 8.25107 4.60767 8.74753 4.79424 9.22396C4.88589 9.44489 4.92338 9.68454 4.90358 9.9229C4.88378 10.1613 4.80726 10.3914 4.6804 10.5942C3.93308 10.9948 3.33333 10.844 2.82001 10.2148C2.51644 9.84058 2.18758 9.48852 1.85766 9.13542C1.74224 9.03211 1.61889 8.93801 1.48875 8.85399Z" fill="black"/>
<path d="M1.48875 8.85405C1.619 8.93909 1.74235 9.03424 1.85766 9.13865C2.18547 9.49175 2.51644 9.8438 2.82001 10.218C3.33333 10.8504 3.93308 10.998 4.6804 10.5974C4.80725 10.3947 4.88378 10.1645 4.90358 9.92613C4.92338 9.68776 4.88589 9.44812 4.79423 9.22719C4.60767 8.75076 4.45272 8.2543 4.20081 7.81476C3.54519 6.6648 3.24479 5.4147 3.08141 4.1256C3.02871 3.71452 3.08141 3.28974 3.08984 2.78064C3.26376 2.85759 3.39025 2.87445 3.44716 2.94613C4.12808 3.79463 5.07039 4.27949 6.00006 4.777C6.69152 5.14697 7.37981 5.51484 7.96797 6.04186C8.58458 6.59839 9.07577 7.23609 9.32558 8.03506C9.51805 8.60423 9.67817 9.18382 9.80517 9.77107C9.96235 10.6069 9.87035 11.4705 9.5406 12.2544C9.28974 12.8647 8.97563 13.4497 8.67102 14.0368C8.45457 14.4403 8.09805 14.7507 7.66862 14.9095C6.91733 15.226 6.1195 15.4178 5.3065 15.4777C3.64005 15.5831 2.50379 14.7398 1.70377 13.3696C1.28215 12.6465 1.18834 11.8265 1.1641 11.0138C1.14618 10.4161 1.24315 9.81324 1.30429 9.21454C1.3201 9.10492 1.40864 9.00584 1.48875 8.85405Z" fill="white"/>
</svg>
