<svg width="19" height="19" viewBox="0 0 19 19" fill="none" xmlns="http://www.w3.org/2000/svg">
<path d="M14.8801 9.5634L10.9022 8.0978L9.4366 4.11985C9.32504 3.81703 9.1233 3.55571 8.85859 3.37113C8.59388 3.18654 8.27892 3.08758 7.95621 3.08758C7.6335 3.08758 7.31855 3.18654 7.05383 3.37113C6.78912 3.55571 6.58738 3.81703 6.47582 4.11985L5.01023 8.0978L1.03227 9.5634C0.729456 9.67496 0.468133 9.8767 0.283549 10.1414C0.0989656 10.4061 0 10.7211 0 11.0438C0 11.3665 0.0989656 11.6815 0.283549 11.9462C0.468133 12.2109 0.729456 12.4126 1.03227 12.5242L5.01023 13.9898L6.47582 17.9677C6.58738 18.2705 6.78912 18.5319 7.05383 18.7165C7.31855 18.901 7.6335 19 7.95621 19C8.27892 19 8.59388 18.901 8.85859 18.7165C9.1233 18.5319 9.32504 18.2705 9.4366 17.9677L10.9022 13.9898L14.8801 12.5242C15.183 12.4126 15.4443 12.2109 15.6289 11.9462C15.8135 11.6815 15.9124 11.3665 15.9124 11.0438C15.9124 10.7211 15.8135 10.4061 15.6289 10.1414C15.4443 9.8767 15.183 9.67496 14.8801 9.5634ZM10.1111 12.2636C9.89679 12.3424 9.70215 12.4668 9.54068 12.6283C9.37922 12.7897 9.25478 12.9844 9.17599 13.1987L9.17607 13.1986L7.95621 16.5096L6.73643 13.1987C6.65766 12.9844 6.53323 12.7898 6.37178 12.6283C6.21032 12.4668 6.01569 12.3424 5.80138 12.2636L2.4904 11.0438L5.8013 9.82401C6.01562 9.74524 6.21024 9.62081 6.3717 9.45935C6.53316 9.2979 6.65758 9.10327 6.73636 8.88896L7.95621 5.57798L9.17599 8.88888C9.25476 9.10319 9.37919 9.29782 9.54065 9.45928C9.7021 9.62073 9.89673 9.74516 10.111 9.82393L13.422 11.0438L10.1111 12.2636ZM10.165 2.83983C10.165 2.58878 10.2647 2.34801 10.4422 2.17049C10.6198 1.99297 10.8605 1.89323 11.1116 1.89322H12.0582V0.94661C12.0582 0.695554 12.1579 0.45478 12.3354 0.277256C12.513 0.0997319 12.7537 0 13.0048 0C13.2559 0 13.4966 0.0997319 13.6742 0.277256C13.8517 0.45478 13.9514 0.695554 13.9514 0.94661V1.89322H14.898C15.1491 1.89322 15.3899 1.99295 15.5674 2.17048C15.7449 2.348 15.8446 2.58877 15.8446 2.83983C15.8446 3.09089 15.7449 3.33166 15.5674 3.50919C15.3899 3.68671 15.1491 3.78644 14.898 3.78644H13.9514V4.73305C13.9514 4.98411 13.8517 5.22488 13.6742 5.40241C13.4966 5.57993 13.2559 5.67966 13.0048 5.67966C12.7537 5.67966 12.513 5.57993 12.3354 5.40241C12.1579 5.22488 12.0582 4.98411 12.0582 4.73305V3.78644H11.1116C10.8605 3.78643 10.6198 3.68669 10.4422 3.50917C10.2647 3.33165 10.165 3.09088 10.165 2.83983ZM19 6.62627C19 6.87733 18.9003 7.11809 18.7227 7.29561C18.5452 7.47314 18.3044 7.57287 18.0534 7.57288H17.7379V7.88842C17.7379 8.13948 17.6381 8.38025 17.4606 8.55778C17.2831 8.7353 17.0423 8.83503 16.7912 8.83503C16.5402 8.83503 16.2994 8.7353 16.1219 8.55778C15.9444 8.38025 15.8446 8.13948 15.8446 7.88842V7.57288H15.5291C15.278 7.57288 15.0373 7.47315 14.8597 7.29563C14.6822 7.1181 14.5825 6.87733 14.5825 6.62627C14.5825 6.37522 14.6822 6.13444 14.8597 5.95692C15.0373 5.77939 15.278 5.67966 15.5291 5.67966H15.8446V5.36413C15.8446 5.11307 15.9444 4.8723 16.1219 4.69477C16.2994 4.51725 16.5402 4.41752 16.7912 4.41752C17.0423 4.41752 17.2831 4.51725 17.4606 4.69477C17.6381 4.8723 17.7379 5.11307 17.7379 5.36413V5.67966H18.0534C18.3044 5.67968 18.5452 5.77941 18.7227 5.95693C18.9003 6.13445 19 6.37522 19 6.62627Z" fill="black"/>
</svg>
